<svg width="9" height="3" viewBox="0 0 9 3" fill="none" xmlns="http://www.w3.org/2000/svg">
<path d="M1.29167 1.49999H1.29625H1.29167ZM4.5 1.49999H4.50458H4.5ZM7.70833 1.49999H7.71291H7.70833ZM1.75 1.49999C1.75 1.62155 1.70171 1.73813 1.61576 1.82408C1.5298 1.91003 1.41322 1.95832 1.29167 1.95832C1.17011 1.95832 1.05353 1.91003 0.967575 1.82408C0.881621 1.73813 0.833332 1.62155 0.833332 1.49999C0.833332 1.37843 0.881621 1.26185 0.967575 1.1759C1.05353 1.08995 1.17011 1.04166 1.29167 1.04166C1.41322 1.04166 1.5298 1.08995 1.61576 1.1759C1.70171 1.26185 1.75 1.37843 1.75 1.49999V1.49999ZM4.95833 1.49999C4.95833 1.62155 4.91004 1.73813 4.82409 1.82408C4.73813 1.91003 4.62156 1.95832 4.5 1.95832C4.37844 1.95832 4.26186 1.91003 4.17591 1.82408C4.08995 1.73813 4.04167 1.62155 4.04167 1.49999C4.04167 1.37843 4.08995 1.26185 4.17591 1.1759C4.26186 1.08995 4.37844 1.04166 4.5 1.04166C4.62156 1.04166 4.73813 1.08995 4.82409 1.1759C4.91004 1.26185 4.95833 1.37843 4.95833 1.49999V1.49999ZM8.16666 1.49999C8.16666 1.62155 8.11838 1.73813 8.03242 1.82408C7.94647 1.91003 7.82989 1.95832 7.70833 1.95832C7.58677 1.95832 7.47019 1.91003 7.38424 1.82408C7.29829 1.73813 7.25 1.62155 7.25 1.49999C7.25 1.37843 7.29829 1.26185 7.38424 1.1759C7.47019 1.08995 7.58677 1.04166 7.70833 1.04166C7.82989 1.04166 7.94647 1.08995 8.03242 1.1759C8.11838 1.26185 8.16666 1.37843 8.16666 1.49999V1.49999Z" stroke="#333333" stroke-linecap="round" stroke-linejoin="round"/>
</svg>
